<svg width="17" height="18" viewBox="0 0 17 18" fill="none" xmlns="http://www.w3.org/2000/svg">
<path fill-rule="evenodd" clip-rule="evenodd" d="M0.167954 5.85622C-0.377352 4.29167 0.448908 2.5813 2.01345 2.03599L7.37307 0.167954C8.93762 -0.377352 10.648 0.448908 11.1933 2.01345L12.3114 5.22156H7.31245C5.65559 5.22156 4.31245 6.56471 4.31245 8.22156V13.1769C3.293 12.9836 2.40202 12.266 2.03599 11.2158L0.167954 5.85622ZM8.22375 6.12124C6.56689 6.12124 5.22375 7.46438 5.22375 9.12124V14.7971C5.22375 16.4539 6.56689 17.7971 8.22374 17.7971H13.8996C15.5564 17.7971 16.8996 16.4539 16.8996 14.7971V9.12124C16.8996 7.46439 15.5564 6.12124 13.8996 6.12124H8.22375Z" fill="#ADD976"/>
</svg>
