<svg width="16" height="14" viewBox="0 0 16 14" fill="none" xmlns="http://www.w3.org/2000/svg">
<path fill-rule="evenodd" clip-rule="evenodd" d="M15.1667 5.83333L13.3362 1.25722C13.0325 0.497901 12.2971 0 11.4793 0H3.6874C2.86959 0 2.13417 0.497902 1.83045 1.25722L0 5.83333V11C0 12.6569 1.34315 14 3 14H12.1667C13.8235 14 15.1667 12.6569 15.1667 11V5.83333ZM5.25 7C4.92783 7 4.66667 7.26117 4.66667 7.58333C4.66667 7.9055 4.92783 8.16667 5.25 8.16667H9.91667C10.2388 8.16667 10.5 7.9055 10.5 7.58333C10.5 7.26117 10.2388 7 9.91667 7H5.25Z" fill="#ADD976"/>
</svg>
