<svg width="19" height="15" viewBox="0 0 19 15" fill="none" xmlns="http://www.w3.org/2000/svg">
<path d="M6.76115 9.19331C7.00575 9.19331 7.24033 9.09614 7.4133 8.92318C7.58626 8.75022 7.68343 8.51564 7.68343 8.27103C7.68343 8.02643 7.58626 7.79185 7.4133 7.61888C7.24033 7.44592 7.00575 7.34875 6.76115 7.34875C6.51654 7.34875 6.28196 7.44592 6.109 7.61888C5.93604 7.79185 5.83887 8.02643 5.83887 8.27103C5.83887 8.51564 5.93604 8.75022 6.109 8.92318C6.28196 9.09614 6.51654 9.19331 6.76115 9.19331ZM11.68 9.19331C11.9246 9.19331 12.1592 9.09614 12.3321 8.92318C12.5051 8.75022 12.6022 8.51564 12.6022 8.27103C12.6022 8.02643 12.5051 7.79185 12.3321 7.61888C12.1592 7.44592 11.9246 7.34875 11.68 7.34875C11.4354 7.34875 11.2008 7.44592 11.0278 7.61888C10.8549 7.79185 10.7577 8.02643 10.7577 8.27103C10.7577 8.51564 10.8549 8.75022 11.0278 8.92318C11.2008 9.09614 11.4354 9.19331 11.68 9.19331Z" fill="#CCCCCC"/>
<path d="M13.1552 3.93891C11.8833 3.54087 10.5572 3.34298 9.22447 3.35234H9.21586C7.88293 3.34296 6.55664 3.54084 5.28449 3.93891C5.20712 3.96435 5.12547 3.97417 5.04428 3.9678C4.96308 3.96143 4.88396 3.93899 4.81151 3.90178C4.73906 3.86457 4.67473 3.81335 4.62224 3.75107C4.56975 3.68879 4.53016 3.61671 4.50577 3.539C4.48137 3.46129 4.47266 3.37952 4.48013 3.29841C4.48761 3.21731 4.51112 3.1385 4.5493 3.06657C4.58749 2.99463 4.63959 2.93099 4.70257 2.87935C4.76555 2.82772 4.83817 2.78911 4.9162 2.76577C6.30889 2.3298 7.76086 2.11283 9.22017 2.12263C10.6791 2.11295 12.1306 2.32991 13.5229 2.76577C13.602 2.78811 13.6758 2.82608 13.74 2.87744C13.8042 2.9288 13.8574 2.9925 13.8965 3.06478C13.9356 3.13706 13.9599 3.21645 13.9678 3.29826C13.9757 3.38007 13.9671 3.46264 13.9426 3.54108C13.918 3.61952 13.878 3.69224 13.8249 3.75495C13.7717 3.81766 13.7066 3.86907 13.6332 3.90616C13.5599 3.94325 13.4799 3.96526 13.3979 3.97088C13.3159 3.97651 13.2336 3.96563 13.1558 3.93891H13.1552ZM4.51408 10.5467C4.56287 10.3912 4.67144 10.2614 4.81591 10.1859C4.96038 10.1103 5.12892 10.0953 5.28449 10.144C6.55662 10.5418 7.88286 10.7404 9.21586 10.7306H9.22447C10.5574 10.74 11.8837 10.5421 13.1558 10.144C13.3099 10.1005 13.4749 10.1188 13.6157 10.195C13.7564 10.2712 13.862 10.3993 13.9098 10.5521C13.9576 10.7049 13.9439 10.8703 13.8717 11.0132C13.7994 11.156 13.6743 11.2651 13.5229 11.3171C12.1306 11.753 10.6791 11.97 9.22017 11.9603C7.76086 11.9701 6.30889 11.7531 4.9162 11.3171C4.76065 11.2683 4.63085 11.1598 4.55533 11.0153C4.47981 10.8708 4.46475 10.7023 4.51347 10.5467H4.51408Z" fill="#CCCCCC"/>
<path d="M12.684 0.0282878C13.498 0.203521 14.2949 0.450077 15.0665 0.766111H15.0677C15.237 0.835847 15.3886 0.942458 15.5114 1.07818C15.6343 1.2139 15.7253 1.37531 15.7779 1.55066L18.3898 10.257C18.4569 10.4846 18.457 10.7268 18.3901 10.9545C18.3231 11.1822 18.1919 11.3857 18.0123 11.5408C16.7408 12.6457 15.0216 13.488 13.0603 13.9676H13.0572C12.7872 14.0323 12.5034 14.0035 12.2519 13.886C12.0004 13.7686 11.7962 13.5693 11.6725 13.3208V13.3196L10.749 11.4732C10.6776 11.3275 10.6667 11.1595 10.7187 11.0058C10.7706 10.8521 10.8812 10.7251 11.0263 10.6526C11.1714 10.5801 11.3393 10.5679 11.4934 10.6186C11.6475 10.6693 11.7753 10.7789 11.849 10.9235L12.7731 12.7717C14.5808 12.329 16.1105 11.5642 17.2062 10.6117L17.2093 10.6099L17.2105 10.6081V10.6056L14.5998 1.9042L14.5992 1.90297C13.8953 1.61528 13.1674 1.3904 12.4239 1.23094L12.422 1.23032C12.4219 1.23022 12.4217 1.23015 12.4215 1.23013C12.4213 1.2301 12.4211 1.23012 12.421 1.23018C12.4208 1.23024 12.4206 1.23034 12.4205 1.23047C12.4204 1.2306 12.4203 1.23076 12.4202 1.23094L11.8078 3.06874C11.7823 3.14536 11.7419 3.21621 11.689 3.27724C11.6361 3.33827 11.5717 3.38828 11.4995 3.42442C11.4273 3.46056 11.3486 3.48212 11.2681 3.48787C11.1875 3.49362 11.1066 3.48345 11.03 3.45794C10.9534 3.43242 10.8825 3.39206 10.8215 3.33917C10.7605 3.28627 10.7105 3.22187 10.6743 3.14965C10.6382 3.07742 10.6166 2.99879 10.6109 2.91823C10.6051 2.83767 10.6153 2.75677 10.6408 2.68015L11.2538 0.840508C11.3502 0.55271 11.5495 0.310669 11.8135 0.160869C12.0775 0.0110683 12.3875 -0.0359292 12.684 0.0289025V0.0282878ZM6.01957 1.22971H6.0165C5.27314 1.38957 4.54516 1.61522 3.84176 1.90297L3.84115 1.90359V1.9042L1.22987 10.6056V10.6081C1.22987 10.6081 1.22987 10.6093 1.2311 10.6099L1.23356 10.6117C2.32923 11.5648 3.85959 12.329 5.66665 12.7717L6.59139 10.9235C6.62709 10.8506 6.67687 10.7855 6.73785 10.732C6.79883 10.6785 6.8698 10.6375 6.94668 10.6115C7.02355 10.5856 7.10481 10.5751 7.18577 10.5806C7.26672 10.5862 7.34577 10.6078 7.41836 10.644C7.49095 10.6803 7.55564 10.7306 7.6087 10.792C7.66176 10.8534 7.70215 10.9247 7.72752 11.0017C7.7529 11.0788 7.76277 11.1602 7.75657 11.2411C7.75036 11.322 7.7282 11.4009 7.69136 11.4732L6.76785 13.3202C6.64441 13.5689 6.44026 13.7684 6.18876 13.8861C5.93726 14.0039 5.65327 14.0328 5.3832 13.9682L5.38013 13.9676C3.41875 13.488 1.699 12.6457 0.428101 11.5408C0.248314 11.3858 0.117064 11.1823 0.0501003 10.9545C-0.0168635 10.7268 -0.0166964 10.4846 0.0505817 10.257V10.2545L2.66371 1.55066C2.7163 1.37541 2.80727 1.21408 2.93 1.07837C3.05273 0.942666 3.20415 0.835997 3.37325 0.766111H3.37448C4.14536 0.450426 4.94265 0.203523 5.75703 0.0282878C6.05345 -0.0363762 6.3633 0.010703 6.62713 0.160491C6.89096 0.310279 7.09018 0.552223 7.18656 0.839893V0.841123L7.79957 2.67953C7.84697 2.83309 7.83237 2.9991 7.75889 3.14203C7.6854 3.28495 7.55888 3.39343 7.40642 3.44422C7.25395 3.49502 7.08765 3.4841 6.94313 3.4138C6.79861 3.34351 6.68736 3.21943 6.6332 3.06812L6.0208 1.23032H6.01957V1.22971Z" fill="#CCCCCC"/>
<path d="M6.76115 9.19331C7.00575 9.19331 7.24033 9.09614 7.4133 8.92318C7.58626 8.75022 7.68343 8.51564 7.68343 8.27103C7.68343 8.02643 7.58626 7.79185 7.4133 7.61888C7.24033 7.44592 7.00575 7.34875 6.76115 7.34875C6.51654 7.34875 6.28196 7.44592 6.109 7.61888C5.93604 7.79185 5.83887 8.02643 5.83887 8.27103C5.83887 8.51564 5.93604 8.75022 6.109 8.92318C6.28196 9.09614 6.51654 9.19331 6.76115 9.19331ZM11.68 9.19331C11.9246 9.19331 12.1592 9.09614 12.3321 8.92318C12.5051 8.75022 12.6022 8.51564 12.6022 8.27103C12.6022 8.02643 12.5051 7.79185 12.3321 7.61888C12.1592 7.44592 11.9246 7.34875 11.68 7.34875C11.4354 7.34875 11.2008 7.44592 11.0278 7.61888C10.8549 7.79185 10.7577 8.02643 10.7577 8.27103C10.7577 8.51564 10.8549 8.75022 11.0278 8.92318C11.2008 9.09614 11.4354 9.19331 11.68 9.19331Z" fill="#CCCCCC"/>
<path d="M13.1552 3.93891C11.8833 3.54087 10.5572 3.34298 9.22447 3.35234H9.21586C7.88293 3.34296 6.55664 3.54084 5.28449 3.93891C5.20712 3.96435 5.12547 3.97417 5.04428 3.9678C4.96308 3.96143 4.88396 3.93899 4.81151 3.90178C4.73906 3.86457 4.67473 3.81335 4.62224 3.75107C4.56975 3.68879 4.53016 3.61671 4.50577 3.539C4.48137 3.46129 4.47266 3.37952 4.48013 3.29841C4.48761 3.21731 4.51112 3.1385 4.5493 3.06657C4.58749 2.99463 4.63959 2.93099 4.70257 2.87935C4.76555 2.82772 4.83817 2.78911 4.9162 2.76577C6.30889 2.3298 7.76086 2.11283 9.22017 2.12263C10.6791 2.11295 12.1306 2.32991 13.5229 2.76577C13.602 2.78811 13.6758 2.82608 13.74 2.87744C13.8042 2.9288 13.8574 2.9925 13.8965 3.06478C13.9356 3.13706 13.9599 3.21645 13.9678 3.29826C13.9757 3.38007 13.9671 3.46264 13.9426 3.54108C13.918 3.61952 13.878 3.69224 13.8249 3.75495C13.7717 3.81766 13.7066 3.86907 13.6332 3.90616C13.5599 3.94325 13.4799 3.96526 13.3979 3.97088C13.3159 3.97651 13.2336 3.96563 13.1558 3.93891H13.1552ZM4.51408 10.5467C4.56287 10.3912 4.67144 10.2614 4.81591 10.1859C4.96038 10.1103 5.12892 10.0953 5.28449 10.144C6.55662 10.5418 7.88286 10.7404 9.21586 10.7306H9.22447C10.5574 10.74 11.8837 10.5421 13.1558 10.144C13.3099 10.1005 13.4749 10.1188 13.6157 10.195C13.7564 10.2712 13.862 10.3993 13.9098 10.5521C13.9576 10.7049 13.9439 10.8703 13.8717 11.0132C13.7994 11.156 13.6743 11.2651 13.5229 11.3171C12.1306 11.753 10.6791 11.97 9.22017 11.9603C7.76086 11.9701 6.30889 11.7531 4.9162 11.3171C4.76065 11.2683 4.63085 11.1598 4.55533 11.0153C4.47981 10.8708 4.46475 10.7023 4.51347 10.5467H4.51408Z" fill="#CCCCCC"/>
</svg>
