<svg width="16" height="16" viewBox="0 0 16 16" fill="none" xmlns="http://www.w3.org/2000/svg">
<path d="M7.77211 3.78527C5.56469 3.78527 3.7832 5.56676 3.7832 7.77418C3.7832 9.98159 5.56469 11.7631 7.77211 11.7631C9.97953 11.7631 11.761 9.98159 11.761 7.77418C11.761 5.56676 9.97953 3.78527 7.77211 3.78527ZM7.77211 10.3667C6.34458 10.3667 5.17961 9.20171 5.17961 7.77418C5.17961 6.34665 6.34458 5.18168 7.77211 5.18168C9.19964 5.18168 10.3646 6.34665 10.3646 7.77418C10.3646 9.20171 9.19964 10.3667 7.77211 10.3667ZM11.9244 2.69226C11.409 2.69226 10.9928 3.10846 10.9928 3.62385C10.9928 4.13924 11.409 4.55544 11.9244 4.55544C12.4398 4.55544 12.856 4.14118 12.856 3.62385C12.854 3.10652 12.4398 2.69226 11.9244 2.69226Z" fill="#CCCCCC"/>
<path d="M15.5478 7.77418C15.5478 6.70062 15.5575 5.63678 15.4972 4.56516C15.4369 3.32045 15.153 2.21577 14.2428 1.30558C13.3306 0.39344 12.2279 0.111435 10.9832 0.0511448C9.90964 -0.00914584 8.8458 0.000578487 7.77418 0.000578487C6.70062 0.000578487 5.63678 -0.00914584 4.56516 0.0511448C3.32045 0.111435 2.21577 0.395385 1.30558 1.30558C0.39344 2.21772 0.111435 3.32045 0.0511448 4.56516C-0.00914584 5.63873 0.000578487 6.70256 0.000578487 7.77418C0.000578487 8.8458 -0.00914584 9.91158 0.0511448 10.9832C0.111435 12.2279 0.395385 13.3326 1.30558 14.2428C2.21772 15.1549 3.32045 15.4369 4.56516 15.4972C5.63873 15.5575 6.70256 15.5478 7.77418 15.5478C8.84774 15.5478 9.91158 15.5575 10.9832 15.4972C12.2279 15.4369 13.3326 15.153 14.2428 14.2428C15.1549 13.3306 15.4369 12.2279 15.4972 10.9832C15.5595 9.91158 15.5478 8.84774 15.5478 7.77418ZM13.8363 12.3602C13.6943 12.7141 13.5232 12.9786 13.249 13.2509C12.9747 13.5251 12.7122 13.6963 12.3582 13.8383C11.3352 14.2447 8.90609 14.1533 7.77224 14.1533C6.63838 14.1533 4.20731 14.2447 3.18431 13.8402C2.83035 13.6982 2.56585 13.5271 2.29357 13.2529C2.01934 12.9786 1.8482 12.7161 1.70622 12.3621C1.30169 11.3372 1.3931 8.90804 1.3931 7.77418C1.3931 6.64033 1.30169 4.20925 1.70622 3.18626C1.8482 2.83229 2.01934 2.56779 2.29357 2.29551C2.56779 2.02323 2.83035 1.85014 3.18431 1.70817C4.20731 1.30363 6.63838 1.39504 7.77224 1.39504C8.90609 1.39504 11.3372 1.30363 12.3602 1.70817C12.7141 1.85014 12.9786 2.02129 13.2509 2.29551C13.5251 2.56974 13.6963 2.83229 13.8383 3.18626C14.2428 4.20925 14.1514 6.64033 14.1514 7.77418C14.1514 8.90804 14.2428 11.3372 13.8363 12.3602Z" fill="#CCCCCC"/>
</svg>
