<svg width="14" height="14" viewBox="0 0 14 14" fill="none" xmlns="http://www.w3.org/2000/svg">
<path fill-rule="evenodd" clip-rule="evenodd" d="M1.64697 1.98804C0.109746 3.76671 0.23636 6.53053 1.92977 8.1612L7.66978 13.6886C7.97375 13.9813 8.44386 13.9597 8.7198 13.6405L13.2873 8.35552C13.5633 8.03625 13.5405 7.54013 13.2366 7.24742L7.49656 1.72007C5.80315 0.0893924 3.1842 0.209367 1.64697 1.98804ZM4.49439 4.73019C4.80183 4.37446 4.77787 3.823 4.44086 3.49848C4.10384 3.17395 3.58141 3.19925 3.27396 3.55498C2.96652 3.91072 2.99049 4.46218 3.3275 4.7867C3.66451 5.11123 4.18694 5.08593 4.49439 4.73019Z" fill="#ADD976"/>
</svg>
