<svg width="36" height="38" viewBox="0 0 36 38" fill="none" xmlns="http://www.w3.org/2000/svg">
<path fill-rule="evenodd" clip-rule="evenodd" d="M10.5108 11.4901C8.35867 13.9802 8.53593 17.8496 10.9067 20.1325L18.9427 27.8708C19.3683 28.2806 20.0264 28.2505 20.4127 27.8035L26.8073 20.4046C27.1936 19.9576 27.1618 19.263 26.7362 18.8533L18.7002 11.115C16.3294 8.83201 12.6629 8.99998 10.5108 11.4901ZM14.4974 15.329C14.9279 14.831 14.8943 14.059 14.4225 13.6046C13.9507 13.1503 13.2193 13.1857 12.7889 13.6837C12.3584 14.1818 12.392 14.9538 12.8638 15.4081C13.3356 15.8625 14.067 15.8271 14.4974 15.329Z" fill="#ADD976"/>
</svg>
