<svg width="36" height="38" viewBox="0 0 36 38" fill="none" xmlns="http://www.w3.org/2000/svg">
<path d="M27.5357 19.9058C26.7898 19.1517 25.6905 19.0818 24.9446 19.8358L22.8119 21.9982C22.2566 22.5575 21.5878 22.5608 21.1984 22.0931C20.9388 21.7834 21.0407 20.8296 21.1146 20.2237L22.1826 11.318C22.2812 10.5223 21.7193 9.75492 20.9339 9.65671C20.1485 9.56183 19.4338 10.1727 19.3401 10.9684L18.1588 17.9631C18.098 18.1379 17.9632 18.1679 17.9485 17.9332L17.5492 8.84105C17.5492 8.45585 17.3982 8.08644 17.1293 7.81406C16.8605 7.54169 16.4958 7.38867 16.1156 7.38867C15.7354 7.38867 15.3708 7.54169 15.1019 7.81406C14.8331 8.08644 14.6821 8.45585 14.6821 8.84105L14.6541 18.0014C14.6607 18.108 14.5703 18.1379 14.5555 18.0164L13.2805 10.8669C13.1409 10.0779 12.3933 9.50856 11.6145 9.65172C10.8357 9.79321 10.3197 10.5939 10.4594 11.3829L11.5947 19.7493C11.5947 19.8991 11.5471 19.9857 11.4764 19.7959L9.78409 15.2049C9.51956 14.4491 8.69968 14.0097 7.95373 14.2777C7.20778 14.5474 6.81837 15.4213 7.08291 16.177L10.0519 26.0066L10.1012 26.1664L10.1078 26.1863L10.1094 26.193C10.5226 27.4773 11.3262 28.5962 12.4052 29.3897C13.4841 30.1832 14.7832 30.6107 16.1164 30.6109C17.952 30.5965 19.7344 29.9843 21.2001 28.8647C22.7347 27.9275 27.6491 22.5775 27.6491 22.5775C28.3934 21.8167 28.28 20.6598 27.5357 19.9058Z" fill="#ADD976"/>
</svg>
