<svg width="20" height="10" viewBox="0 0 20 10" fill="none" xmlns="http://www.w3.org/2000/svg">
<path fill-rule="evenodd" clip-rule="evenodd" d="M2 0C0.895431 0 0 0.89543 0 2V8C0 9.10457 0.895431 10 2 10H18C19.1046 10 20 9.10457 20 8V2C20 0.895431 19.1046 0 18 0H2ZM5.48795 5.54705C5.91837 5.04903 5.88481 4.27698 5.413 3.82265C4.94118 3.36831 4.20977 3.40373 3.77935 3.90176C3.34893 4.39979 3.38248 5.17183 3.8543 5.62616C4.32611 6.0805 5.05752 6.04508 5.48795 5.54705ZM10.6806 3.82265C11.1524 4.27698 11.1859 5.04903 10.7555 5.54705C10.3251 6.04508 9.59369 6.0805 9.12188 5.62616C8.65006 5.17183 8.61651 4.39979 9.04693 3.90176C9.47735 3.40373 10.2088 3.36831 10.6806 3.82265ZM16.0231 5.54705C16.4535 5.04903 16.42 4.27698 15.9482 3.82265C15.4763 3.36831 14.7449 3.40373 14.3145 3.90176C13.8841 4.39979 13.9176 5.17183 14.3895 5.62616C14.8613 6.0805 15.5927 6.04508 16.0231 5.54705Z" fill="#ADD976"/>
</svg>
