<svg width="36" height="38" viewBox="0 0 36 38" fill="none" xmlns="http://www.w3.org/2000/svg">
<path fill-rule="evenodd" clip-rule="evenodd" d="M4.28697 20.2152C3.87309 19.8211 3.87309 19.1609 4.28697 18.7668L10.9231 12.4477C11.5597 11.8415 12.6126 12.2928 12.6126 13.1719V14.7779H15.5689C16.1212 14.7779 16.5689 15.2256 16.5689 15.7779V22.5697C16.5689 23.1219 16.1212 23.5697 15.5689 23.5697H12.6126V25.81C12.6126 26.6892 11.5597 27.1405 10.9231 26.5342L4.28697 20.2152ZM31.3541 18.7668C31.768 19.1609 31.768 19.8211 31.3541 20.2152L24.718 26.5342C24.0813 27.1405 23.0284 26.6892 23.0284 25.81V23.5697H21.1118C20.5595 23.5697 20.1118 23.1219 20.1118 22.5697V15.7779C20.1118 15.2256 20.5595 14.7779 21.1118 14.7779H23.0284V13.1719C23.0284 12.2928 24.0813 11.8415 24.718 12.4477L31.3541 18.7668ZM19.3601 15.7379C19.3601 15.2077 18.9303 14.7779 18.4001 14.7779C17.8699 14.7779 17.4401 15.2077 17.4401 15.7379V22.9381C17.4401 23.4684 17.8699 23.8982 18.4001 23.8982C18.9303 23.8982 19.3601 23.4684 19.3601 22.9381V15.7379Z" fill="#ADD976"/>
</svg>
