<svg width="16" height="15" viewBox="0 0 16 15" fill="none" xmlns="http://www.w3.org/2000/svg">
<path d="M2.17692 15H0.7917C0.612993 14.999 0.439804 14.9419 0.299754 14.8379C0.159705 14.7339 0.0608608 14.589 0.0189864 14.4263C-0.0197031 14.2605 0.00108918 14.0874 0.078138 13.9339C0.155187 13.7803 0.284185 13.6548 0.445124 13.5769C1.16443 13.2533 3.00304 12.2049 3.61663 10.9575C-2.75254 6.09112 1.64288 0.376455 1.69738 0.300913C1.78784 0.180999 1.91569 0.0902366 2.0634 0.0410723C2.21111 -0.00809189 2.37144 -0.0132496 2.52241 0.0263066C2.67635 0.0582119 2.81672 0.132182 2.92575 0.238853C3.03478 0.345524 3.10758 0.480099 3.13491 0.62554C3.58938 2.92243 4.68252 4.1944 6.54619 4.56803C6.47133 4.29081 6.43543 4.00563 6.43938 3.71971C6.44168 2.74091 6.85789 1.80284 7.59691 1.11082C8.33592 0.418806 9.33753 0.0292152 10.3825 0.0273275C11.4746 0.0273275 12.4609 0.426476 13.2064 1.15025L14.7529 0.15187C14.9179 0.046095 15.1196 0.00277106 15.3173 0.0306113C15.5151 0.0584515 15.6942 0.155391 15.8188 0.301934C15.9487 0.449277 16.0129 0.63795 15.9978 0.828553C15.9828 1.01916 15.8898 1.19695 15.7381 1.32482L14.0597 2.82239C13.954 11.2321 10.2779 15 2.17801 15H2.17692ZM2.15076 2.77135C1.51101 4.51903 1.27124 7.43863 5.05307 10.1092C5.29284 10.2827 5.42581 10.5828 5.34625 10.8829C5.10647 11.9303 4.3076 12.8042 3.48149 13.4779C9.76892 13.1033 12.4064 9.88457 12.4325 2.69785C12.4064 2.67233 12.353 2.6223 12.3257 2.5733C12.1187 2.25861 11.8287 1.99911 11.4836 1.81979C11.1385 1.64047 10.7499 1.54735 10.3553 1.5494C9.73359 1.54994 9.13753 1.78143 8.69784 2.19308C8.25815 2.60473 8.01074 3.16293 8.00987 3.74523C8.00987 4.1944 8.17008 4.64357 8.46326 5.01822C8.64962 5.2428 8.67687 5.54191 8.51666 5.79202C8.44964 5.91568 8.34639 6.01891 8.21899 6.0896C8.0916 6.16029 7.94535 6.19552 7.79735 6.19116C5.08032 6.16666 3.16216 5.01822 2.14967 2.77237L2.15076 2.77135Z" fill="#CCCCCC"/>
</svg>
