<svg width="18" height="15" viewBox="0 0 18 15" fill="none" xmlns="http://www.w3.org/2000/svg">
<path d="M8.34934 14.0014C4.48262 14.0014 1.34863 10.867 1.34863 7.00071C1.34863 3.13437 4.48262 0 8.34934 0C12.2153 0 15.3501 3.13437 15.3501 7.00071C15.3501 10.867 12.2153 14.0014 8.34934 14.0014ZM8.34934 12.4457C11.3565 12.4457 13.7943 10.0079 13.7943 7.00071C13.7943 3.99352 11.3565 1.55571 8.34934 1.55571C5.34215 1.55571 2.90435 3.99352 2.90435 7.00071C2.90435 10.0079 5.34215 12.4457 8.34934 12.4457Z" fill="#CCCCCC"/>
<path d="M5.23828 5.44497C5.23828 5.54712 5.2584 5.64827 5.29749 5.74264C5.33658 5.83702 5.39388 5.92277 5.46611 5.995C5.53834 6.06723 5.62409 6.12453 5.71847 6.16362C5.81284 6.20271 5.91399 6.22283 6.01614 6.22283C6.11829 6.22283 6.21944 6.20271 6.31381 6.16362C6.40818 6.12453 6.49393 6.06723 6.56617 5.995C6.6384 5.92277 6.69569 5.83702 6.73478 5.74264C6.77387 5.64827 6.79399 5.54712 6.79399 5.44497C6.79399 5.34282 6.77387 5.24167 6.73478 5.1473C6.69569 5.05292 6.6384 4.96717 6.56617 4.89494C6.49393 4.82271 6.40818 4.76542 6.31381 4.72632C6.21944 4.68723 6.11829 4.66711 6.01614 4.66711C5.91399 4.66711 5.81284 4.68723 5.71847 4.72632C5.62409 4.76542 5.53834 4.82271 5.46611 4.89494C5.39388 4.96717 5.33658 5.05292 5.29749 5.1473C5.2584 5.24167 5.23828 5.34282 5.23828 5.44497Z" fill="#CCCCCC"/>
<path d="M1.59771 9.90447C1.66577 9.96242 1.77934 10.0243 1.93724 10.0818C2.31839 10.2211 2.88234 10.3074 3.58124 10.3257C5.08756 10.3654 7.06876 10.0919 9.12153 9.54199C11.1743 8.99205 13.0264 8.23792 14.3114 7.45034C14.9076 7.08474 15.3525 6.72848 15.6131 6.41734C15.7213 6.289 15.7889 6.17815 15.8189 6.09414C15.8329 6.05369 15.834 6.04164 15.8344 6.04242C15.8282 6.02102 15.7563 5.95296 15.5528 5.86623C15.2503 5.73672 14.796 5.64454 14.2227 5.6037L14.3332 4.05188C15.9674 4.16778 17.0685 4.63838 17.3369 5.63949C17.8596 7.59074 14.3238 9.75824 9.52407 11.0448C4.72469 12.3306 0.578716 12.2213 0.0556071 10.2701C-0.219754 9.24135 0.544101 8.25736 1.98002 7.31538L2.83333 8.61634C2.32267 8.95121 1.94735 9.27363 1.73189 9.55055C1.64516 9.66256 1.59187 9.75746 1.56932 9.82824C1.55998 9.85858 1.55882 9.86791 1.55843 9.86753C1.55882 9.86753 1.56659 9.87841 1.59732 9.90447H1.59771Z" fill="#CCCCCC"/>
</svg>
