<svg width="20" height="22" viewBox="0 0 20 22" fill="none" xmlns="http://www.w3.org/2000/svg">
<path d="M19.7266 18.3326L15.832 14.3168C15.6562 14.1355 15.418 14.0348 15.168 14.0348H14.5312C15.6094 12.613 16.25 10.8246 16.25 8.87906C16.25 4.25098 12.6133 0.500977 8.125 0.500977C3.63672 0.500977 0 4.25098 0 8.87906C0 13.5072 3.63672 17.2572 8.125 17.2572C10.0117 17.2572 11.7461 16.5966 13.125 15.4849V16.1414C13.125 16.3992 13.2227 16.6449 13.3984 16.8262L17.293 20.842C17.6602 21.2206 18.2539 21.2206 18.6172 20.842L19.7227 19.7021C20.0898 19.3235 20.0898 18.7112 19.7266 18.3326ZM8.125 14.0348C5.36328 14.0348 3.125 11.7308 3.125 8.87906C3.125 6.03132 5.35937 3.72332 8.125 3.72332C10.8867 3.72332 13.125 6.02729 13.125 8.87906C13.125 11.7268 10.8906 14.0348 8.125 14.0348Z" fill="#333333"/>
</svg>
