<svg width="42" height="30" viewBox="0 0 42 30" fill="none" xmlns="http://www.w3.org/2000/svg">
<path d="M10.5842 11.9437C12.7123 11.9437 14.4467 10.1578 14.4467 7.96401C14.4467 5.77026 12.7123 3.98901 10.5842 3.98901C8.45606 3.98901 6.72169 5.77495 6.72169 7.96401C6.717 10.1578 8.45138 11.9437 10.5842 11.9437ZM10.5842 5.99995C11.5826 5.99995 12.3983 6.8812 12.3983 7.96401C12.3983 9.04683 11.5873 9.93277 10.5842 9.93277C9.58575 9.93277 8.77013 9.05152 8.77013 7.96401C8.77013 6.8812 9.58106 5.99995 10.5842 5.99995Z" fill="#999999"/>
<path d="M36.4734 0H5.52656C2.47969 0 0 2.43281 0 5.42344V24.5766C0 27.5672 2.47969 30 5.52656 30H36.4688C39.5156 30 41.9953 27.5672 41.9953 24.5766V5.41875C42 2.43281 39.5203 0 36.4734 0ZM2.05312 5.41875C2.05312 3.53906 3.61406 2.01094 5.53125 2.01094H36.4734C38.3906 2.01094 39.9516 3.53906 39.9516 5.41875V24.5719C39.9516 24.7547 39.9375 24.9328 39.9094 25.1109L30.1125 12.1969C29.3109 11.1422 28.0875 10.5375 26.7469 10.5375H26.7234C25.3734 10.5469 24.1453 11.1656 23.3531 12.2344L19.6172 17.2875C19.2422 17.7937 18.6609 18.1078 18.0234 18.15C17.3859 18.1922 16.7672 17.9531 16.3266 17.5031L15.675 16.8328C14.8547 15.9891 13.7016 15.5203 12.5156 15.5531C11.325 15.5859 10.2047 16.1156 9.43594 17.0062L2.16562 25.4344C2.09062 25.1578 2.05312 24.8719 2.05312 24.5766V5.41875ZM5.52656 27.9844C4.6875 27.9844 3.91406 27.6891 3.31406 27.2016C3.34219 27.1781 3.36563 27.15 3.38906 27.1219L11.0016 18.3094C11.4 17.85 11.9578 17.5828 12.5766 17.5641C13.1906 17.5453 13.7672 17.7797 14.1937 18.2156L14.8453 18.8859C15.7078 19.7766 16.9172 20.2359 18.1641 20.1562C19.4109 20.0766 20.5453 19.4578 21.2812 18.4688L25.0125 13.4156C25.4156 12.8672 26.0437 12.5531 26.7328 12.5484H26.7469C27.4313 12.5484 28.0594 12.8578 28.4672 13.3969L38.7094 26.9109C38.7516 26.9672 38.7984 27.0141 38.8453 27.0609C38.2219 27.6328 37.3875 27.9891 36.4688 27.9891H5.52656V27.9844Z" fill="#999999"/>
</svg>
