<svg width="27" height="19" viewBox="0 0 27 19" fill="none" xmlns="http://www.w3.org/2000/svg">
<path d="M22.8918 1.60468C22.8843 1.59125 22.8719 1.58073 22.8567 1.57499C21.1062 0.833171 19.2588 0.304192 17.3609 0.0012975C17.3437 -0.00166324 17.3259 0.000472677 17.31 0.00740147C17.2942 0.0143303 17.2811 0.0256992 17.2726 0.0398914C17.0211 0.461578 16.7927 0.894719 16.5884 1.33766C14.5426 1.05083 12.4616 1.05083 10.4158 1.33766C10.2101 0.893594 9.97814 0.460345 9.72081 0.0398914C9.71198 0.0260076 9.69883 0.0149005 9.68308 0.00801674C9.66732 0.00113295 9.64968 -0.00120848 9.63246 0.0012975C7.73436 0.303557 5.8869 0.832575 4.13656 1.57504C4.12158 1.5809 4.10894 1.59092 4.10038 1.60371C0.600057 6.43167 -0.358814 11.1409 0.111576 15.7919C0.112899 15.8033 0.116691 15.8143 0.122725 15.8243C0.12876 15.8343 0.136914 15.8431 0.146703 15.8502C2.18491 17.244 4.46467 18.308 6.88869 18.9966C6.90576 19.0013 6.92399 19.0011 6.94093 18.996C6.95786 18.9909 6.97269 18.9811 6.98342 18.9679C7.50405 18.3137 7.96536 17.6208 8.36268 16.8965C8.36814 16.8866 8.37125 16.8757 8.37182 16.8645C8.37239 16.8534 8.3704 16.8423 8.36598 16.8319C8.36156 16.8215 8.35481 16.8122 8.34617 16.8044C8.33754 16.7966 8.32722 16.7906 8.31588 16.7867C7.58842 16.5297 6.88416 16.2198 6.20969 15.8599C6.19744 15.8533 6.18715 15.844 6.17973 15.8328C6.17231 15.8216 6.16799 15.8088 6.16715 15.7957C6.16631 15.7826 6.16898 15.7695 6.17492 15.7576C6.18086 15.7457 6.18988 15.7353 6.2012 15.7274C6.34312 15.6294 6.48258 15.5285 6.61947 15.4247C6.63148 15.4155 6.64601 15.4097 6.66142 15.4078C6.67683 15.4059 6.69252 15.4079 6.70672 15.4138C11.1254 17.2764 15.9092 17.2764 20.2756 15.4138C20.2899 15.4076 20.3057 15.4052 20.3214 15.4069C20.337 15.4087 20.3518 15.4145 20.364 15.4237C20.501 15.5281 20.6409 15.6294 20.7833 15.7274C20.7947 15.7352 20.8038 15.7455 20.8098 15.7574C20.8159 15.7693 20.8186 15.7824 20.8179 15.7955C20.8172 15.8086 20.8129 15.8213 20.8056 15.8326C20.7983 15.8438 20.7881 15.8532 20.7759 15.8599C20.1029 16.2228 19.398 16.5325 18.6687 16.7858C18.6574 16.7897 18.6471 16.7959 18.6385 16.8038C18.6299 16.8117 18.6232 16.8212 18.6189 16.8316C18.6146 16.8421 18.6127 16.8533 18.6133 16.8645C18.614 16.8756 18.6172 16.8866 18.6228 16.8965C19.0267 17.6168 19.4874 18.3088 20.001 18.9668C20.0114 18.9803 20.0261 18.9904 20.0431 18.9957C20.0601 19.0011 20.0785 19.0013 20.0957 18.9965C22.5241 18.3102 24.8078 17.2461 26.8486 15.8502C26.8585 15.8435 26.8668 15.8349 26.8728 15.825C26.8789 15.8151 26.8826 15.8042 26.8837 15.7928C27.4468 10.4159 25.9409 5.74521 22.8918 1.60468ZM9.02257 12.9599C7.69222 12.9599 6.59605 11.8324 6.59605 10.4476C6.59605 9.06275 7.67096 7.93509 9.02257 7.93509C10.3847 7.93509 11.4703 9.07255 11.449 10.4475C11.449 11.8324 10.3741 12.9599 9.02257 12.9599ZM17.9941 12.9599C16.6638 12.9599 15.5677 11.8324 15.5677 10.4476C15.5677 9.06275 16.6426 7.93509 17.9941 7.93509C19.3564 7.93509 20.4419 9.07255 20.4207 10.4475C20.4207 11.8324 19.3564 12.9599 17.9941 12.9599Z" fill="#29A654"/>
</svg>
