<svg width="21" height="19" viewBox="0 0 21 19" fill="none" xmlns="http://www.w3.org/2000/svg">
<path d="M19.3238 2.23273L21 0.401145V0H15.1949L11.0578 11.7669L6.35195 0H0.265234V0.401145L2.22305 3.09411C2.41445 3.29313 2.51289 3.58543 2.48828 3.87774V14.4599C2.54844 14.8424 2.4418 15.2311 2.20664 15.5079L0 18.5646V18.9596H6.25078V18.5584L4.04687 15.511C3.80898 15.2342 3.69414 14.8486 3.74336 14.463V5.30818L9.23125 18.9658H9.86836L14.5879 5.30818V16.1889C14.5879 16.475 14.5879 16.534 14.4238 16.7237L12.7258 18.5989V19H20.9617V18.5989L19.3238 16.7673C19.1816 16.6429 19.1078 16.4345 19.1379 16.2324V2.76759C19.1078 2.56547 19.1816 2.35712 19.3238 2.23273Z" fill="#29A654"/>
</svg>
