<svg width="19" height="22" viewBox="0 0 19 22" fill="none" xmlns="http://www.w3.org/2000/svg">
<path d="M2.58514 22H0.939614C0.727413 21.9985 0.521757 21.9148 0.355491 21.7623C0.189224 21.6097 0.0719373 21.3971 0.0223625 21.1584C-0.0233397 20.9154 0.00142642 20.6618 0.0928302 20.4367C0.184234 20.2117 0.337182 20.0277 0.528016 19.9134C1.38228 19.4382 3.56539 17.9006 4.29366 16.0696C-3.2687 8.9312 1.95178 0.548792 2.01564 0.438971C2.23654 0.0725648 2.61621 -0.0741971 2.99588 0.0356248C3.37555 0.145447 3.6603 0.474912 3.72416 0.9142C4.26174 4.28274 5.55866 6.14971 7.7737 6.69882C7.68474 6.29198 7.6421 5.87345 7.64685 5.45384C7.64685 2.48865 9.73504 0.0356248 12.3298 0.0356248C12.9564 0.0307922 13.5773 0.174456 14.1541 0.457766C14.7309 0.741076 15.2515 1.15803 15.6838 1.68295L17.5183 0.219327C17.9299 -0.110139 18.4675 -0.000316898 18.7842 0.438971C19.1008 0.878258 19.0689 1.53719 18.6892 1.93954L16.696 4.13597C16.5691 16.473 12.2029 22 2.58514 22Z" fill="#29A654"/>
</svg>
