<svg width="14" height="12" viewBox="0 0 14 12" fill="none" xmlns="http://www.w3.org/2000/svg">
<path d="M13.0019 11.1529H0.998084C0.749042 11.1529 0.549808 11.3412 0.549808 11.5765C0.549808 11.8118 0.749042 12 0.998084 12H13.0517C13.3008 12 13.5 11.8118 13.5 11.5765C13.4502 11.3882 13.251 11.1529 13.0019 11.1529ZM0.948276 9.88235H3.09004C3.18965 9.88235 3.33908 9.83529 3.38889 9.74118L10.7605 2.77647C10.9598 2.58823 10.9598 2.35294 10.7605 2.16471L8.66858 0.141176C8.46935 -0.0470588 8.22031 -0.0470588 8.02107 0.141176L6.52682 1.55294L0.649425 7.10588C0.549808 7.2 0.5 7.29412 0.5 7.38824V9.41176C0.5 9.50588 0.549808 9.64706 0.649425 9.74118C0.699234 9.83529 0.848659 9.88235 0.948276 9.88235ZM8.31992 1.03529L9.81418 2.44706L8.96743 3.24706L7.47318 1.83529L8.31992 1.03529ZM1.44636 7.57647L6.87548 2.44706L8.36973 3.85882L2.94061 8.98823H1.44636V7.57647Z" fill="#666666"/>
</svg>
